<?xml version="1.0" encoding="iso-8859-1"?>
<!-- Uploaded to: SVG Repo, www.svgrepo.com, Generator: SVG Repo Mixer Tools -->
<!DOCTYPE svg PUBLIC "-//W3C//DTD SVG 1.1//EN" "http://www.w3.org/Graphics/SVG/1.1/DTD/svg11.dtd">
<svg fill="#000000" height="800px" width="800px" version="1.1" id="Capa_1" xmlns="http://www.w3.org/2000/svg" xmlns:xlink="http://www.w3.org/1999/xlink" 
	 viewBox="0 0 469.986 469.986" xml:space="preserve">
<g>
	<path d="M288.012,339.227l-65.846-54.849c-1.289-26.01-16.509-48.403-38.33-59.889v-22.834c0-4.143-3.358-7.5-7.5-7.5
		s-7.5,3.357-7.5,7.5v16.983c-5.838-1.541-11.963-2.37-18.278-2.37c-6.315,0-12.44,0.829-18.278,2.369v-16.983
		c0-4.143-3.358-7.5-7.5-7.5s-7.5,3.357-7.5,7.5v22.833c-21.82,11.486-37.041,33.879-38.33,59.889l-65.847,54.849
		c-15.439,12.861-17.537,35.884-4.677,51.322c7.198,8.642,17.577,13.104,28.031,13.104c8.224,0,16.494-2.764,23.292-8.426
		l20.664-17.212c1.953,9.319,5.742,18.134,11.293,26.298c0.162,0.265,0.336,0.521,0.529,0.763
		c5.578,8.005,12.852,15.377,21.763,21.97c11.37,8.413,22.675,13.564,29.061,16.099v19.3c0,4.143,3.358,7.5,7.5,7.5
		s7.5-3.357,7.5-7.5v-19.3c6.386-2.535,17.691-7.686,29.061-16.099c8.909-6.592,16.182-13.962,21.76-21.965
		c0.195-0.245,0.372-0.504,0.535-0.772c5.549-8.163,9.337-16.977,11.291-26.295l20.664,17.212
		c6.799,5.663,15.066,8.425,23.291,8.425c10.452,0,20.834-4.462,28.031-13.103C305.549,375.111,303.451,352.088,288.012,339.227z
		 M244.144,378.018l-21.887-18.232v-18.144l15.396,12.825C244.707,360.344,247.003,369.82,244.144,378.018z M150.557,429.949
		c-5.9-2.216-22.309-9.144-35.966-22.029h71.933C172.867,420.805,156.457,427.733,150.557,429.949z M198.816,392.92h-96.518
		c-3.964-6.532-6.866-14.003-7.96-22.484h60.43c4.142,0,7.5-3.357,7.5-7.5c-0.001-4.144-3.359-7.5-7.5-7.5h-60.91v-22.483h113.398
		v22.483h-22.494c-4.141,0-7.499,3.356-7.5,7.498c0,4.145,3.358,7.502,7.5,7.502h22.013
		C205.683,378.917,202.78,386.388,198.816,392.92z M56.961,378.026c-1.004-2.861-1.412-5.921-1.129-9.03
		c0.52-5.703,3.229-10.863,7.63-14.528l15.396-12.825v18.144L56.961,378.026z M150.557,231.269c28.72,0,52.505,21.47,56.188,49.199
		H94.37C98.053,252.739,121.837,231.269,150.557,231.269z M93.858,317.952v-22.483h113.398v22.483H93.858z M19.951,380.95
		c-7.566-9.084-6.332-22.631,2.752-30.197l56.156-46.776v18.143l-24.996,20.822c-7.479,6.229-12.084,14.999-12.968,24.692
		c-0.62,6.8,0.651,13.481,3.612,19.448C36.091,390.501,26.067,388.293,19.951,380.95z M281.164,380.949
		c-6.118,7.344-16.14,9.551-24.556,6.133c2.96-5.966,4.231-12.647,3.611-19.447c-0.883-9.693-5.488-18.463-12.968-24.692
		l-24.996-20.822v-18.143l56.156,46.776C287.495,358.319,288.731,371.866,281.164,380.949z"/>
	<path d="M461.541,79.436c-6.229-7.479-14.999-12.085-24.692-12.968c-9.683-0.891-19.136,2.056-26.612,8.276
		c-0.028,0.022-20.681,17.226-20.681,17.226c-1.954-9.32-5.744-18.136-11.295-26.302c-0.16-0.262-0.333-0.516-0.523-0.755
		c-5.578-8.007-12.854-15.38-21.767-21.975c-11.37-8.413-22.675-13.564-29.061-16.099V7.54c0-4.143-3.357-7.5-7.5-7.5
		s-7.5,3.357-7.5,7.5v19.3c-6.386,2.535-17.691,7.686-29.061,16.099c-8.913,6.594-16.188,13.968-21.766,21.974
		c-0.19,0.24-0.364,0.494-0.524,0.756c-5.552,8.165-9.341,16.981-11.295,26.301l-20.658-17.208
		c-15.453-12.862-38.469-10.764-51.328,4.674c-12.86,15.438-10.762,38.462,4.677,51.322l65.847,54.847
		c1.289,26.011,16.51,48.405,38.331,59.891v22.833c0,4.143,3.357,7.5,7.5,7.5s7.5-3.357,7.5-7.5v-16.983
		c5.838,1.54,11.962,2.369,18.277,2.369c6.316,0,12.44-0.829,18.278-2.37v16.983c0,4.143,3.357,7.5,7.5,7.5s7.5-3.357,7.5-7.5
		v-22.834c21.82-11.486,37.041-33.879,38.33-59.889l65.848-54.848c7.479-6.23,12.084-15,12.967-24.693
		C470.716,96.372,467.772,86.915,461.541,79.436z M414.135,100.99c-0.52,5.703-3.229,10.863-7.63,14.528l-15.396,12.825v-18.145
		l21.897-18.24C414.009,94.82,414.418,97.881,414.135,100.99z M319.409,238.717c-28.72,0-52.505-21.47-56.188-49.199h21.983
		c4.142,0,7.5-3.357,7.5-7.499c0-4.143-3.357-7.501-7.5-7.501H262.71v-22.483h113.398v22.483h-60.91c-4.143,0-7.5,3.357-7.5,7.5
		c0,4.143,3.358,7.5,7.5,7.5h60.399C371.914,217.247,348.129,238.717,319.409,238.717z M225.814,91.96l21.896,18.239v18.144
		l-15.396-12.825c-4.4-3.665-7.11-8.825-7.629-14.528C224.401,97.881,224.81,94.82,225.814,91.96z M319.408,40.037
		c5.9,2.216,22.31,9.144,35.967,22.029h-71.933C297.104,49.176,313.519,42.249,319.408,40.037z M271.15,77.066h96.518
		c3.964,6.532,6.866,14.003,7.96,22.484H263.191C264.284,91.069,267.186,83.598,271.15,77.066z M376.108,114.551v22.483H262.71
		v-22.483H376.108z M188.803,89.036c6.117-7.343,16.14-9.551,24.556-6.133c-2.961,5.966-4.232,12.648-3.612,19.448
		c0.883,9.693,5.488,18.463,12.967,24.692l24.996,20.822v18.143l-56.155-46.775C182.471,111.667,181.236,98.12,188.803,89.036z
		 M454.895,104.705c-0.52,5.703-3.229,10.862-7.63,14.528l-56.156,46.776v-18.144l24.996-20.822
		c7.479-6.229,12.085-14.999,12.968-24.692c0.62-6.801-0.651-13.481-3.612-19.448c8.416-3.418,18.438-1.211,24.555,6.133
		C453.682,93.437,455.414,99.001,454.895,104.705z"/>
</g>
</svg>