<?xml version="1.0" encoding="iso-8859-1"?>
<!-- Uploaded to: SVG Repo, www.svgrepo.com, Generator: SVG Repo Mixer Tools -->
<svg fill="#000000" height="800px" width="800px" version="1.1" id="Layer_1" xmlns="http://www.w3.org/2000/svg" xmlns:xlink="http://www.w3.org/1999/xlink" 
	 viewBox="0 0 512.001 512.001" xml:space="preserve">
<g>
	<g>
		<path d="M506.641,478.989l-44.868-13.835c-9.646-2.974-17.274-10.077-20.927-19.487l-17.235-44.394
			c-5.969-15.373-19.186-26.478-35.356-29.708l-21.215-4.237V250.769l18.24,3.643c11.055,2.208,20.089,9.8,24.169,20.309
			l17.235,44.394c5.344,13.765,16.501,24.155,30.612,28.506l44.868,13.835c0.745,0.23,1.499,0.339,2.24,0.339
			c3.245,0,6.249-2.096,7.256-5.359c1.237-4.008-1.012-8.26-5.02-9.496l-44.868-13.835c-9.646-2.974-17.274-10.077-20.927-19.487
			l-17.235-44.394c-5.969-15.373-19.186-26.478-35.356-29.708l-21.56-4.306c-1.727-9.63-10.065-16.981-20.142-17.165v-25.784
			c0-7.45-0.934-14.686-2.682-21.601l21.88-4.675c14.757-3.153,26.64-13.503,31.788-27.688l14.361-39.571
			c6.311-17.392,20.009-30.692,37.58-36.488l32.407-10.69c3.984-1.315,6.147-5.608,4.834-9.592
			c-1.314-3.984-5.608-6.147-9.592-4.834l-32.406,10.69c-22.022,7.264-39.191,23.933-47.102,45.732l-14.361,39.571
			c-3.349,9.229-11.081,15.964-20.681,18.015l-23.745,5.074c-5.863-13.021-14.798-24.372-25.877-33.124V103.76V25.753
			c0-3.372-2.223-6.341-5.459-7.288c-3.235-0.949-6.709,0.351-8.53,3.189l-19.754,30.814c-6.79-2.941-14.271-4.579-22.13-4.579
			s-15.339,1.639-22.13,4.579l-19.754-30.814c-1.82-2.839-5.293-4.139-8.53-3.189c-3.237,0.948-5.459,3.916-5.459,7.288v78.008
			v21.529c-10.099,8.64-18.225,19.519-23.607,31.861l-28.183-6.022c-9.601-2.051-17.333-8.786-20.682-18.015l-14.361-39.571
			c-7.911-21.798-25.08-38.467-47.101-45.732L34.871,37.12c-3.983-1.313-8.278,0.85-9.592,4.834
			c-1.313,3.984,0.85,8.278,4.834,9.592l32.407,10.69c17.571,5.796,31.268,19.095,37.58,36.488l14.361,39.571
			c5.148,14.185,17.032,24.536,31.789,27.688l26.492,5.66c-1.592,6.616-2.441,13.519-2.441,20.616v25.764h-3.644
			c-10.19,0-18.683,7.344-20.499,17.014l-22.414,4.476c-16.171,3.23-29.388,14.336-35.356,29.708l-17.235,44.395
			c-3.653,9.41-11.28,16.513-20.927,19.487L5.359,346.939c-4.008,1.237-6.256,5.487-5.02,9.496c1.007,3.263,4.01,5.359,7.256,5.359
			c0.741,0,1.496-0.109,2.24-0.339l44.868-13.835c14.111-4.351,25.268-14.741,30.611-28.506l17.235-44.394
			c4.079-10.509,13.115-18.101,24.169-20.309l19.067-3.808v116.559l-22.041,4.402c-16.171,3.229-29.388,14.336-35.356,29.708
			l-17.236,44.394c-3.653,9.41-11.28,16.513-20.927,19.487L5.359,478.989c-4.008,1.237-6.256,5.487-5.02,9.496
			c1.007,3.263,4.01,5.359,7.256,5.359c0.741,0,1.496-0.109,2.24-0.339l44.868-13.835c14.111-4.351,25.268-14.741,30.611-28.506
			l17.235-44.394c4.079-10.509,13.115-18.101,24.169-20.309l19.067-3.808v15.068c0,47.054,38.281,85.336,85.336,85.336h50.586
			c47.054,0,85.336-38.281,85.336-85.336V382.82l18.24,3.643c11.055,2.208,20.089,9.8,24.169,20.309l17.235,44.394
			c5.344,13.765,16.501,24.155,30.612,28.506l44.868,13.835c0.745,0.23,1.499,0.339,2.24,0.339c3.245,0,6.249-2.096,7.256-5.359
			C512.896,484.476,510.649,480.226,506.641,478.989z M297.767,51.674v13.848c-1.736-1.846-3.591-3.576-5.561-5.173L297.767,51.674z
			 M216.402,51.674l5.561,8.675c-1.97,1.597-3.825,3.328-5.561,5.173V51.674z M216.402,103.76c0-22.432,18.25-40.682,40.682-40.682
			s40.682,18.25,40.682,40.682v9.658c-11.849-5.936-25.21-9.284-39.341-9.284c-15.207,0-29.525,3.873-42.024,10.681V103.76z
			 M185.49,192.26c0-23.011,10.724-43.553,27.422-56.931c0.399-0.257,0.771-0.551,1.114-0.876
			c12.307-9.475,27.703-15.129,44.4-15.129c15.612,0,30.082,4.947,41.959,13.333c0.372,0.323,0.775,0.611,1.205,0.858
			c18.039,13.291,29.771,34.67,29.771,58.745v25.764H185.49V192.26z M248.818,467.868H231.12
			c-38.677-0.001-70.144-31.467-70.144-70.145V238.895c0-3.132,2.548-5.68,5.68-5.68h31.945l50.217,50.217V467.868z
			 M220.083,233.215h72.659l-36.33,36.33L220.083,233.215z M351.85,241.523c0,0.016,0,0.033,0,0.05v132.001c0,0.016,0,0.033,0,0.05
			v24.099c0.001,38.678-31.466,70.144-70.144,70.144h-17.698V283.432l50.217-50.217h31.945c3.132,0,5.68,2.548,5.68,5.68V241.523z"
			/>
	</g>
</g>
<g>
	<g>
		<path d="M258.427,128.991c-29.21,0-52.976,23.764-52.976,52.976v18.798c0,4.195,3.401,7.595,7.595,7.595
			c4.195,0,7.595-3.401,7.595-7.595v-18.799c0-20.834,16.95-37.784,37.785-37.784c4.195,0,7.595-3.401,7.595-7.595
			S262.622,128.991,258.427,128.991z"/>
	</g>
</g>
<g>
	<g>
		<path d="M218.191,433.354c-14.4-13.251-22.658-32.068-22.658-51.626v-93.055c0-4.195-3.401-7.595-7.595-7.595
			c-4.195,0-7.595,3.401-7.595,7.595v93.055c0,23.792,10.045,46.683,27.561,62.804c1.459,1.344,3.303,2.006,5.141,2.006
			c2.05,0,4.093-0.824,5.591-2.452C221.477,441,221.277,436.195,218.191,433.354z"/>
	</g>
</g>
</svg>