<?xml version='1.0' encoding='iso-8859-1'?>
<!DOCTYPE svg PUBLIC '-//W3C//DTD SVG 1.1//EN' 'http://www.w3.org/Graphics/SVG/1.1/DTD/svg11.dtd'>
<!-- Uploaded to: SVG Repo, www.svgrepo.com, Generator: SVG Repo Mixer Tools -->
<svg fill="#000000" height="800px" width="800px" version="1.1" xmlns="http://www.w3.org/2000/svg" viewBox="0 0 247.879 247.879" xmlns:xlink="http://www.w3.org/1999/xlink" enable-background="new 0 0 247.879 247.879">
  <path d="m199.243,148.867l13.848,13.848c1.465,1.464 3.385,2.197 5.304,2.197 1.919,0 3.839-0.732 5.304-2.197 2.929-2.929 2.929-7.678 0-10.606l-16.045-16.045c-1.407-1.407-3.314-2.197-5.304-2.197h-11.485c-0.291-5.168-1.001-10.093-2.12-14.746h10.499l13.848,13.848c1.465,1.464 3.385,2.197 5.304,2.197 1.919,0 3.839-0.732 5.304-2.197 2.929-2.929 2.929-7.678 0-10.607l-16.045-16.045c-1.407-1.407-3.314-2.197-5.304-2.197h-19.094c-3.124-6.073-7.163-11.438-12.085-15.983-5.019-4.635-10.84-8.334-17.317-11.075 5.128-4.603 7.973-10.735 7.973-17.99 0-12.683-9.326-26.911-23.001-33.217l13.053-13.052c2.929-2.929 2.929-7.678 0-10.606-2.93-2.929-7.678-2.929-10.607,0l-17.237,17.238-17.071-17.069c-2.929-2.929-7.678-2.929-10.607,4.44089e-16-2.929,2.929-2.929,7.678 0,10.606l12.831,12.831c-13.743,6.277-23.127,20.549-23.127,33.269 0,7.254 2.846,13.386 7.973,17.989-6.477,2.741-12.3,6.441-17.318,11.077-4.921,4.546-8.959,9.911-12.083,15.983h-19.105c-1.989,0-3.897,0.79-5.303,2.197l-16.045,16.045c-2.929,2.929-2.929,7.678 0,10.607 2.929,2.929 7.678,2.929 10.606,0l13.848-13.848h10.511c-1.12,4.653-1.83,9.578-2.121,14.746h-11.496c-1.989,0-3.897,0.79-5.303,2.197l-16.045,16.045c-2.929,2.929-2.929,7.678 0,10.606 2.929,2.929 7.678,2.929 10.606,0l13.848-13.848h8.662c0.459,5.047 1.275,9.977 2.413,14.746h-14.181c-1.989,0-3.897,0.79-5.303,2.197l-16.045,16.045c-2.929,2.929-2.929,7.678 0,10.606 2.929,2.929 7.678,2.929 10.606,0l13.848-13.848h15.915c8.244,19.976 22.451,35.587 39.348,42.632v19.134c0,4.142 3.358,7.5 7.5,7.5 4.142,0 7.5-3.358 7.5-7.5v-15.295c1.666,0.168 3.348,0.254 5.041,0.254 1.636,0 3.26-0.083 4.871-0.239v15.11c0,4.142 3.357,7.5 7.5,7.5 4.143,0 7.5-3.358 7.5-7.5v-18.89c16.976-7.01 31.255-22.662 39.528-42.706h15.904l13.848,13.848c1.465,1.464 3.385,2.197 5.304,2.197 1.919,0 3.839-0.732 5.304-2.197 2.929-2.929 2.929-7.678 0-10.606l-16.045-16.045c-1.407-1.407-3.314-2.197-5.304-2.197h-14.17c1.139-4.77 1.954-9.699 2.414-14.746h8.65zm-75.294-111.327c12.32,0 22.877,11.839 22.877,21.531 0,11.708-19.057,12.301-22.877,12.301-3.822,0-22.887-0.593-22.887-12.301 0-9.692 10.561-21.531 22.887-21.531zm-.01,48.832c18.41,0 32.63,6.303 41.528,17.748h-83.047c8.896-11.445 23.113-17.748 41.519-17.748zm-49.219,32.748h98.45c1.412,4.508 2.311,9.434 2.673,14.746h-103.795c0.361-5.313 1.26-10.238 2.672-14.746zm49.219,91.217c-17.274,0-33.224-12.874-42.805-31.725h85.619c-9.582,18.851-25.536,31.725-42.814,31.725zm48.681-46.725h-97.351c-1.353-4.731-2.326-9.671-2.878-14.746h103.109c-0.553,5.075-1.526,10.015-2.88,14.746z"/>
</svg>