<?xml version="1.0" encoding="iso-8859-1"?>
<!-- Uploaded to: SVG Repo, www.svgrepo.com, Generator: SVG Repo Mixer Tools -->
<svg fill="#000000" height="800px" width="800px" version="1.1" id="Capa_1" xmlns="http://www.w3.org/2000/svg" xmlns:xlink="http://www.w3.org/1999/xlink" 
	 viewBox="0 0 463.003 463.003" xml:space="preserve">
<g>
	<path d="M263.001,271.503c0-4.142-3.358-7.5-7.5-7.5h-48c-4.142,0-7.5,3.358-7.5,7.5s3.358,7.5,7.5,7.5h48
		C259.643,279.003,263.001,275.645,263.001,271.503z"/>
	<path d="M215.501,223.003h32c4.142,0,7.5-3.358,7.5-7.5s-3.358-7.5-7.5-7.5h-32c-4.142,0-7.5,3.358-7.5,7.5
		S211.359,223.003,215.501,223.003z"/>
	<path d="M223.501,175.003h16c4.142,0,7.5-3.358,7.5-7.5s-3.358-7.5-7.5-7.5h-16c-4.142,0-7.5,3.358-7.5,7.5
		S219.359,175.003,223.501,175.003z"/>
	<path d="M239.501,368.003h-16c-4.142,0-7.5,3.358-7.5,7.5s3.358,7.5,7.5,7.5h16c4.142,0,7.5-3.358,7.5-7.5
		S243.643,368.003,239.501,368.003z"/>
	<path d="M247.501,320.003h-32c-4.142,0-7.5,3.358-7.5,7.5s3.358,7.5,7.5,7.5h32c4.142,0,7.5-3.358,7.5-7.5
		S251.643,320.003,247.501,320.003z"/>
	<path d="M298.855,120.795l-14.911-7.456L260.805,90.2c-0.519-0.52-1.112-0.959-1.758-1.306l3.347-1.116l20.948,13.965
		c1.232,0.821,2.68,1.26,4.16,1.26h8c4.142,0,7.5-3.358,7.5-7.5s-3.358-7.5-7.5-7.5h-5.729l-22.111-14.74
		c-1.926-1.284-4.338-1.607-6.532-0.875l-22.128,7.376v-1.995c7.976-2.694,14.045-9.557,15.603-17.987l21.058-14.038
		c3.447-2.297,4.378-6.954,2.08-10.4c-2.298-3.447-6.955-4.378-10.4-2.08l-12.34,8.227V32.72l7.615-22.846
		c1.31-3.93-0.814-8.177-4.744-9.487c-3.928-1.311-8.177,0.814-9.487,4.744l-8,24c-0.255,0.765-0.385,1.565-0.385,2.372v8.5h-17
		v-8.5c0-0.806-0.13-1.607-0.385-2.372l-8-24c-1.31-3.93-5.558-6.055-9.487-4.744c-3.93,1.31-6.053,5.557-4.744,9.487l7.615,22.846
		v8.769l-12.34-8.227c-3.447-2.298-8.103-1.367-10.4,2.08c-2.298,3.446-1.367,8.103,2.08,10.4l21.058,14.038
		c1.558,8.43,7.626,15.293,15.603,17.987v1.995l-22.128-7.376c-2.196-0.732-4.606-0.409-6.532,0.875l-22.111,14.74h-5.729
		c-4.142,0-7.5,3.358-7.5,7.5s3.358,7.5,7.5,7.5h8c1.48,0,2.928-0.438,4.16-1.26l20.948-13.965l3.347,1.116
		c-0.646,0.347-1.239,0.787-1.758,1.306l-23.14,23.139l-14.911,7.456c-3.705,1.852-5.207,6.357-3.354,10.062
		c1.314,2.628,3.962,4.147,6.714,4.147c1.127,0,2.271-0.255,3.348-0.793l16-8c0.721-0.36,1.379-0.834,1.949-1.405l1.359-1.359
		c-1.901,4.866-3.716,10.115-5.436,15.765c-10.787,35.441-16.727,82.424-16.727,132.291s5.94,96.85,16.727,132.292
		c11.789,38.734,27.962,59.208,46.773,59.208s34.984-20.474,46.773-59.208c10.787-35.441,16.727-82.424,16.727-132.292
		s-5.94-96.85-16.727-132.291c-1.72-5.65-3.535-10.899-5.436-15.765l1.359,1.359c0.57,0.57,1.228,1.044,1.949,1.405l16,8
		c1.077,0.539,2.221,0.793,3.348,0.793c2.751,0,5.4-1.52,6.714-4.147C304.062,127.152,302.56,122.647,298.855,120.795z
		 M223.001,55.479c0-0.009,0-0.019,0-0.028v-0.448h17v0.448c0,0.009,0,0.019,0,0.028v0.023c0,4.687-3.813,8.5-8.5,8.5
		s-8.5-3.813-8.5-8.5V55.479z M231.501,448.003c-13.005,0-25.276-25.093-32.423-48.576c-1.588-5.217-3.065-10.704-4.431-16.424
		h4.854c4.142,0,7.5-3.358,7.5-7.5s-3.358-7.5-7.5-7.5h-8c-0.025,0-0.048,0.003-0.073,0.004
		c-2.004-10.432-3.665-21.486-4.971-33.004h5.044c4.142,0,7.5-3.358,7.5-7.5s-3.358-7.5-7.5-7.5h-6.522
		c-1.108-13.236-1.757-26.973-1.929-41h0.45c4.142,0,7.5-3.358,7.5-7.5s-3.358-7.5-7.5-7.5h-0.45
		c0.172-14.027,0.821-27.764,1.929-41h6.522c4.142,0,7.5-3.358,7.5-7.5s-3.358-7.5-7.5-7.5h-5.044
		c1.305-11.517,2.966-22.571,4.971-33.004c0.025,0,0.048,0.004,0.073,0.004h8c4.142,0,7.5-3.358,7.5-7.5s-3.358-7.5-7.5-7.5h-4.854
		c1.366-5.72,2.843-11.207,4.431-16.424c7.147-23.483,19.418-48.576,32.423-48.576s25.276,25.093,32.423,48.576
		c1.588,5.217,3.065,10.704,4.431,16.424h-4.854c-4.142,0-7.5,3.358-7.5,7.5s3.358,7.5,7.5,7.5h8c0.025,0,0.048-0.003,0.073-0.004
		c2.004,10.432,3.665,21.486,4.971,33.004h-5.044c-4.142,0-7.5,3.358-7.5,7.5s3.358,7.5,7.5,7.5h6.522
		c1.108,13.236,1.757,26.973,1.929,41h-0.45c-4.142,0-7.5,3.358-7.5,7.5s3.358,7.5,7.5,7.5h0.45
		c-0.172,14.027-0.821,27.764-1.929,41h-6.522c-4.142,0-7.5,3.358-7.5,7.5s3.358,7.5,7.5,7.5h5.044
		c-1.305,11.517-2.966,22.571-4.971,33.004c-0.025,0-0.048-0.004-0.073-0.004h-8c-4.142,0-7.5,3.358-7.5,7.5s3.358,7.5,7.5,7.5
		h4.854c-1.366,5.72-2.843,11.207-4.431,16.424C256.777,422.91,244.506,448.003,231.501,448.003z"/>
</g>
</svg>